# xmcd CD database file
# Copyright (C) 1993-1998 Ti Kan
# 
# Track frame offsets:
#     150
#     9195
#     19278
#     29305
#     40938
#     51805
#     64190
#     74115
#     84637
#     94272
#     105594
#     123424
#     133814
#     139344
#     154939
#     168557
#     181557
#     191024
# 
# Disc length: 2696 seconds
# 
# Revision: 1
# Processed by: cddbd v1.4b41PL1 Copyright (c) Steve Scherf et al.
# Submitted via: DiscPlay 4.0.4
# 
DISCID=fd0a8612
DTITLE=Johnny Winter - Blues In A Box ( disc 2 )
DYEAR=1900
DGENRE=
TTITLE0=Crazy Baby
TTITLE1=Hey Hey Hey
TTITLE2=Creepy
TTITLE3=The Guy You Left Behind
TTITLE4=Gone For Bad
TTITLE5=My World Turns Around Her
TTITLE6=Out Of Sight
TTITLE7=Stay By My Side
TTITLE8=Blue Suede Shoes
TTITLE9=Living In The Blues
TTITLE10=Kind Hearted Woman
TTITLE11=Broke and Lonely
TTITLE12=Don't Drink Whiskey
TTITLE13=Pneumonia Blues
TTITLE14=Moth Balls
TTITLE15=I Can't Believe You Want to Leave
TTITLE16=Oh My Darling
TTITLE17=Gangster Of Love
EXTD=
EXTT0=
EXTT1=
EXTT2=
EXTT3=
EXTT4=
EXTT5=
EXTT6=\n
EXTT7=
EXTT8=
EXTT9=
EXTT10=
EXTT11=
EXTT12=
EXTT13=
EXTT14=
EXTT15=
EXTT16=
EXTT17=
PLAYORDER=
